<?xml version="1.0" encoding="utf-8"?>
<!-- Generator: Adobe Illustrator 25.4.1, SVG Export Plug-In . SVG Version: 6.00 Build 0)  -->
<svg version="1.1" id="Layer_1" xmlns="http://www.w3.org/2000/svg" xmlns:xlink="http://www.w3.org/1999/xlink" x="0px" y="0px"
	 viewBox="0 0 381.5 163.5" style="enable-background:new 0 0 381.5 163.5;" xml:space="preserve">
<style type="text/css">
	.st0{fill:#009EDB;}
	.st1{fill:#FDB714;}
	.st2{fill:#1A3668;}
	.st3{fill:#48773C;}
	.st4{fill:#40AE49;}
	.st5{fill:#F36E24;}
	.st6{fill:#EA1D2D;}
</style>
<g>
	<path class="st0" d="M157.6,124.3h-3.4V108h3.4V124.3z"/>
	<path class="st0" d="M183.9,124.3h-3.4l-6.6-10.8v10.8h-3.4V108h3.4l6.6,10.8V108h3.4V124.3z"/>
	<path class="st0" d="M200.3,124.3h-3.4V108h3.4V124.3z"/>
	<path class="st0" d="M225.2,110.7h-5v13.6h-3.4v-13.6h-4.9V108h13.3V110.7z"/>
	<path class="st0" d="M240.6,124.3h-3.4V108h3.4V124.3z"/>
	<path class="st0" d="M263,120.9h-5.9l-1.1,3.4h-3.6l6.1-16.4h3.1l6.1,16.4h-3.6L263,120.9z M258,118.2h4.1l-2.1-6.1L258,118.2z"/>
	<path class="st0" d="M290.1,110.7h-5v13.6h-3.4v-13.6h-4.9V108h13.3V110.7z"/>
	<path class="st0" d="M305.4,124.3H302V108h3.4V124.3z"/>
	<path class="st0" d="M324.4,120.3l3.7-12.3h3.8l-5.7,16.4h-3.5L317,108h3.7L324.4,120.3z"/>
	<path class="st0" d="M353.1,117.2h-6.5v4.4h7.6v2.7h-11V108h10.9v2.7h-7.6v3.9h6.5V117.2z"/>
</g>
<g>
	<path class="st0" d="M173.1,54.3c-0.2,2.5-1.1,4.4-2.8,5.9c-1.7,1.4-3.8,2.1-6.5,2.1c-3,0-5.3-1-7-3c-1.7-2-2.5-4.7-2.5-8.2v-1.4
		c0-2.2,0.4-4.2,1.2-5.9c0.8-1.7,1.9-3,3.4-3.9c1.5-0.9,3.1-1.4,5.1-1.4c2.7,0,4.8,0.7,6.4,2.1c1.6,1.4,2.6,3.4,2.8,6h-4.8
		c-0.1-1.5-0.5-2.6-1.2-3.2c-0.7-0.7-1.8-1-3.3-1c-1.6,0-2.8,0.6-3.6,1.7c-0.8,1.1-1.2,2.9-1.2,5.3v1.7c0,2.5,0.4,4.3,1.1,5.5
		c0.8,1.2,1.9,1.7,3.6,1.7c1.5,0,2.6-0.3,3.3-1c0.7-0.7,1.1-1.7,1.2-3.1H173.1z"/>
	<path class="st0" d="M195.2,50.9c0,2.3-0.4,4.3-1.2,6c-0.8,1.7-2,3-3.4,4c-1.5,0.9-3.2,1.4-5.1,1.4c-1.9,0-3.6-0.5-5.1-1.4
		c-1.5-0.9-2.7-2.2-3.5-3.9c-0.8-1.7-1.2-3.7-1.3-5.9v-1.1c0-2.3,0.4-4.3,1.2-6c0.8-1.7,2-3.1,3.5-4c1.5-0.9,3.2-1.4,5.1-1.4
		c1.9,0,3.6,0.5,5.1,1.4c1.5,0.9,2.7,2.3,3.5,4c0.8,1.7,1.2,3.7,1.2,6V50.9z M190.3,49.9c0-2.4-0.4-4.3-1.3-5.5
		c-0.9-1.3-2.1-1.9-3.7-1.9c-1.6,0-2.8,0.6-3.7,1.9c-0.9,1.2-1.3,3.1-1.3,5.5v1.1c0,2.4,0.4,4.2,1.3,5.5c0.9,1.3,2.1,2,3.7,2
		c1.6,0,2.8-0.6,3.7-1.9c0.9-1.3,1.3-3.1,1.3-5.5V49.9z"/>
	<path class="st0" d="M217.4,61.9h-4.8l-9.3-15.2v15.2h-4.8V38.9h4.8l9.3,15.2V38.9h4.7V61.9z"/>
	<path class="st0" d="M240.3,61.9h-4.8l-9.3-15.2v15.2h-4.8V38.9h4.8l9.3,15.2V38.9h4.7V61.9z"/>
	<path class="st0" d="M258.3,51.9h-9.1v6.2h10.7v3.8h-15.5V38.9h15.4v3.9h-10.7v5.5h9.1V51.9z"/>
	<path class="st0" d="M280.8,54.3c-0.2,2.5-1.1,4.4-2.8,5.9c-1.7,1.4-3.8,2.1-6.5,2.1c-3,0-5.3-1-7-3c-1.7-2-2.5-4.7-2.5-8.2v-1.4
		c0-2.2,0.4-4.2,1.2-5.9s1.9-3,3.4-3.9c1.5-0.9,3.1-1.4,5.1-1.4c2.7,0,4.8,0.7,6.4,2.1c1.6,1.4,2.6,3.4,2.8,6h-4.8
		c-0.1-1.5-0.5-2.6-1.2-3.2c-0.7-0.7-1.8-1-3.3-1c-1.6,0-2.8,0.6-3.6,1.7c-0.8,1.1-1.2,2.9-1.2,5.3v1.7c0,2.5,0.4,4.3,1.1,5.5
		c0.8,1.2,1.9,1.7,3.6,1.7c1.5,0,2.6-0.3,3.3-1c0.7-0.7,1.1-1.7,1.2-3.1H280.8z"/>
	<path class="st0" d="M300.9,42.7h-7.1v19.2h-4.8V42.7h-7v-3.9h18.8V42.7z"/>
	<path class="st0" d="M308.7,61.9h-4.8V38.9h4.8V61.9z"/>
	<path class="st0" d="M331.8,61.9h-4.8l-9.3-15.2v15.2h-4.8V38.9h4.8l9.3,15.2V38.9h4.7V61.9z"/>
	<path class="st0" d="M354.2,59c-0.9,1-2.1,1.8-3.6,2.4c-1.6,0.6-3.3,0.8-5.2,0.8c-2,0-3.8-0.4-5.3-1.3s-2.7-2.1-3.5-3.8
		c-0.8-1.7-1.2-3.6-1.3-5.8v-1.6c0-2.3,0.4-4.3,1.2-6c0.8-1.7,1.9-3,3.4-3.9c1.5-0.9,3.2-1.3,5.1-1.3c2.7,0,4.9,0.7,6.4,2
		c1.5,1.3,2.5,3.2,2.7,5.7h-4.6c-0.2-1.3-0.7-2.3-1.4-2.9c-0.7-0.6-1.7-0.9-3-0.9c-1.6,0-2.8,0.6-3.7,1.8c-0.8,1.2-1.3,3-1.3,5.4
		v1.5c0,2.4,0.5,4.2,1.4,5.5c0.9,1.2,2.3,1.9,4,1.9c1.8,0,3.1-0.4,3.8-1.1v-4h-4.3v-3.5h9.1V59z"/>
</g>
<g>
	<path class="st0" d="M154.2,100.7V69.8h10.8c3.7,0,6.6,0.7,8.5,2.2c1.9,1.4,2.9,3.5,2.9,6.3c0,1.5-0.4,2.8-1.2,4
		c-0.8,1.2-1.9,2-3.2,2.5c1.6,0.4,2.8,1.2,3.7,2.4c0.9,1.2,1.4,2.7,1.4,4.4c0,3-0.9,5.2-2.8,6.7c-1.9,1.5-4.6,2.3-8.1,2.3H154.2z
		 M160.6,82.7h4.7c3.2-0.1,4.8-1.3,4.8-3.8c0-1.4-0.4-2.4-1.2-3c-0.8-0.6-2.1-0.9-3.9-0.9h-4.5V82.7z M160.6,87.2v8.3h5.5
		c1.5,0,2.7-0.4,3.5-1.1c0.8-0.7,1.3-1.7,1.3-3c0-2.8-1.5-4.3-4.4-4.3H160.6z"/>
	<path class="st0" d="M205.4,69.8v20.4c0,3.4-1.1,6.1-3.2,8c-2.1,2-5,3-8.7,3c-3.6,0-6.5-1-8.6-2.9c-2.1-1.9-3.2-4.5-3.2-7.9V69.8
		h6.4v20.4c0,2,0.5,3.5,1.5,4.4c1,0.9,2.3,1.4,4,1.4c3.6,0,5.4-1.9,5.5-5.6V69.8H205.4z"/>
	<path class="st0" d="M226.6,92.6c0-1.2-0.4-2.1-1.3-2.8c-0.8-0.6-2.4-1.3-4.6-2c-2.2-0.7-4-1.4-5.2-2.1c-3.5-1.9-5.3-4.4-5.3-7.7
		c0-1.7,0.5-3.2,1.4-4.5c0.9-1.3,2.3-2.3,4.1-3.1c1.8-0.7,3.7-1.1,5.9-1.1c2.2,0,4.2,0.4,5.9,1.2c1.7,0.8,3.1,1.9,4,3.4
		c1,1.5,1.4,3.1,1.4,5h-6.4c0-1.4-0.4-2.5-1.3-3.3c-0.9-0.8-2.1-1.2-3.8-1.2c-1.6,0-2.8,0.3-3.6,1c-0.9,0.7-1.3,1.5-1.3,2.6
		c0,1,0.5,1.8,1.5,2.5c1,0.7,2.5,1.3,4.5,1.9c3.6,1.1,6.3,2.4,7.9,4.1c1.7,1.6,2.5,3.6,2.5,6c0,2.7-1,4.8-3,6.3
		c-2,1.5-4.7,2.3-8.2,2.3c-2.4,0-4.5-0.4-6.5-1.3c-2-0.9-3.4-2.1-4.5-3.6c-1-1.5-1.5-3.3-1.5-5.3h6.4c0,3.4,2,5.1,6.1,5.1
		c1.5,0,2.7-0.3,3.5-0.9C226.2,94.5,226.6,93.7,226.6,92.6z"/>
	<path class="st0" d="M244.1,100.7h-6.4V69.8h6.4V100.7z"/>
	<path class="st0" d="M275.1,100.7h-6.4l-12.4-20.3v20.3H250V69.8h6.4l12.4,20.4V69.8h6.3V100.7z"/>
	<path class="st0" d="M299.3,87.3H287v8.3h14.3v5.1h-20.7V69.8h20.7v5.2H287v7.4h12.2V87.3z"/>
	<path class="st0" d="M321.1,92.6c0-1.2-0.4-2.1-1.3-2.8c-0.8-0.6-2.4-1.3-4.6-2c-2.2-0.7-4-1.4-5.2-2.1c-3.5-1.9-5.3-4.4-5.3-7.7
		c0-1.7,0.5-3.2,1.4-4.5c0.9-1.3,2.3-2.3,4.1-3.1c1.8-0.7,3.7-1.1,5.9-1.1c2.2,0,4.2,0.4,5.9,1.2c1.7,0.8,3.1,1.9,4,3.4
		c1,1.5,1.4,3.1,1.4,5h-6.4c0-1.4-0.4-2.5-1.3-3.3c-0.9-0.8-2.1-1.2-3.8-1.2c-1.6,0-2.8,0.3-3.6,1c-0.9,0.7-1.3,1.5-1.3,2.6
		c0,1,0.5,1.8,1.5,2.5c1,0.7,2.5,1.3,4.5,1.9c3.6,1.1,6.3,2.4,7.9,4.1c1.7,1.6,2.5,3.6,2.5,6c0,2.7-1,4.8-3,6.3
		c-2,1.5-4.7,2.3-8.2,2.3c-2.4,0-4.5-0.4-6.5-1.3c-2-0.9-3.4-2.1-4.5-3.6c-1-1.5-1.5-3.3-1.5-5.3h6.4c0,3.4,2,5.1,6.1,5.1
		c1.5,0,2.7-0.3,3.5-0.9C320.7,94.5,321.1,93.7,321.1,92.6z"/>
	<path class="st0" d="M347.9,92.6c0-1.2-0.4-2.1-1.3-2.8c-0.8-0.6-2.4-1.3-4.6-2c-2.2-0.7-4-1.4-5.2-2.1c-3.5-1.9-5.3-4.4-5.3-7.7
		c0-1.7,0.5-3.2,1.4-4.5c0.9-1.3,2.3-2.3,4.1-3.1c1.8-0.7,3.7-1.1,5.9-1.1c2.2,0,4.2,0.4,5.9,1.2s3.1,1.9,4,3.4c1,1.5,1.4,3.1,1.4,5
		h-6.4c0-1.4-0.4-2.5-1.3-3.3c-0.9-0.8-2.1-1.2-3.8-1.2c-1.6,0-2.8,0.3-3.6,1c-0.9,0.7-1.3,1.5-1.3,2.6c0,1,0.5,1.8,1.5,2.5
		c1,0.7,2.5,1.3,4.5,1.9c3.6,1.1,6.3,2.4,7.9,4.1c1.7,1.6,2.5,3.6,2.5,6c0,2.7-1,4.8-3,6.3c-2,1.5-4.7,2.3-8.2,2.3
		c-2.4,0-4.5-0.4-6.5-1.3c-2-0.9-3.4-2.1-4.5-3.6c-1-1.5-1.5-3.3-1.5-5.3h6.4c0,3.4,2,5.1,6.1,5.1c1.5,0,2.7-0.3,3.5-0.9
		C347.4,94.5,347.9,93.7,347.9,92.6z"/>
</g>
<g>
	<g>
		<g>
			<path class="st1" d="M55.4,68.7l-6.7-3.9c-1.4,2.7-2.4,5.6-3.1,8.5l7.6,1.5C53.7,72.7,54.4,70.7,55.4,68.7z"/>
			<path class="st2" d="M81,52.4l0.3-7.7c-3.9,0-7.7,0.7-11.3,1.9l2.7,7.2C75.5,52.9,78.2,52.4,81,52.4z"/>
			<path class="st3" d="M70,54.8l-2.7-7.2c-2.6,1.1-5.1,2.5-7.5,4.2l4.7,6.1C66.2,56.7,68.1,55.7,70,54.8z"/>
			<path class="st4" d="M62.2,59.9l-4.7-6.1c-2.7,2.4-5.2,5.2-7.2,8.5l6.7,3.9C58.4,63.7,60.2,61.6,62.2,59.9z"/>
			<path class="st5" d="M52.6,77.8l-7.6-1.5c-0.5,3.3-0.5,6.7-0.1,10l7.6-1.2C52.3,82.6,52.3,80.2,52.6,77.8z"/>
			<path class="st0" d="M78.2,27.4l0.4,8.5c-6.8,0.5-13.5,2.4-19.8,6c-22,12.7-29.5,40.9-16.8,62.9c12.7,22,40.9,29.5,62.9,16.9
				c7.7-4.4,13.6-10.8,17.5-18l7.6,3.8c-4.6,8.7-11.7,16.3-20.9,21.6C82.9,144,49.6,135.1,34.6,109c-15.1-26.1-6.1-59.4,19.9-74.5
				C62,30.2,70.1,27.9,78.2,27.4z"/>
			<path class="st6" d="M53.1,88l-7.6,1.2c0.5,2.5,1.3,5,2.4,7.4l6.9-3.4C54,91.6,53.4,89.8,53.1,88z"/>
			<path class="st4" d="M122.7,60.7l7.3-4.2c2.2,4.3,3.9,8.7,4.9,13.3l-8.3,1.6C125.8,67.7,124.5,64.2,122.7,60.7z"/>
			<path class="st0" d="M96.4,56.3c14,8.1,18.9,26.1,10.8,40.1c-8.1,14.1-26.1,18.9-40.1,10.8c-4.8-2.8-8.5-6.7-11-11.2l-6.9,3.4
				c3.1,5.9,7.9,10.9,14.1,14.5c17.7,10.2,40.4,4.1,50.6-13.6c10.2-17.7,4.1-40.4-13.6-50.6c-5-2.9-10.5-4.5-15.9-4.9l-0.3,7.7
				C88.3,52.8,92.5,54,96.4,56.3z"/>
			<path class="st5" d="M99.7,39.4l3-7.9c4.1,1.7,8,3.9,11.6,6.6l-5.2,6.7C106.2,42.6,103,40.8,99.7,39.4z"/>
			<path class="st1" d="M111.9,47l5.2-6.7c4.3,3.7,8.1,8,11.1,13.1l-7.3,4.2C118.4,53.5,115.4,49.9,111.9,47z"/>
			<path class="st3" d="M127.3,74.9l8.3-1.6c0.8,5.2,0.9,10.4,0.2,15.5l-8.4-1.4C127.9,83.3,127.9,79.1,127.3,74.9z"/>
			<path class="st2" d="M126.8,91l8.4,1.4c-0.8,4-2.1,8-3.7,11.7l-7.6-3.8C125.2,97.3,126.2,94.2,126.8,91z"/>
			<path class="st6" d="M82.1,35.7l-0.4-8.5c6,0,11.9,1,17.6,2.9l-3,7.9C91.8,36.6,87,35.8,82.1,35.7z"/>
		</g>
		<g>
			<path class="st1" d="M94.9,88.3l3.3,1.9c0.7-1.4,1.2-2.8,1.6-4.2L96,85.2C95.8,86.2,95.4,87.3,94.9,88.3z"/>
			<path class="st2" d="M82.1,96.4l-0.2,3.8c1.9,0,3.8-0.4,5.6-1l-1.4-3.6C84.9,96.2,83.5,96.4,82.1,96.4z"/>
			<path class="st3" d="M87.6,95.2l1.4,3.6c1.3-0.6,2.6-1.3,3.7-2.1l-2.4-3C89.5,94.3,88.6,94.8,87.6,95.2z"/>
			<path class="st4" d="M91.5,92.7l2.4,3c1.4-1.2,2.6-2.6,3.6-4.2l-3.3-1.9C93.4,90.8,92.5,91.8,91.5,92.7z"/>
			<path class="st5" d="M100.1,79.5l-3.8,0.6c0.1,1.2,0.1,2.4,0,3.6l3.8,0.7C100.3,82.8,100.3,81.1,100.1,79.5z"/>
			<path class="st6" d="M96.1,78.6l3.8-0.6c-0.3-1.3-0.7-2.5-1.2-3.7L95.3,76C95.6,76.8,95.9,77.7,96.1,78.6z"/>
			<path class="st0" d="M69,74.4c4.1-7,13-9.4,20.1-5.4c2.4,1.4,4.3,3.3,5.5,5.6l3.5-1.7c-1.6-2.9-4-5.5-7-7.2
				c-8.8-5.1-20.2-2.1-25.3,6.8c-5.1,8.9-2.1,20.2,6.8,25.3c2.5,1.4,5.2,2.2,8,2.4l0.2-3.8c-2.1-0.2-4.2-0.8-6.2-1.9
				C67.4,90.4,65,81.4,69,74.4z"/>
		</g>
	</g>
</g>
</svg>
